<?xml version="1.0" encoding="utf-8"?>
<!-- Generator: Adobe Illustrator 12.0.1, SVG Export Plug-In  -->
<!DOCTYPE svg PUBLIC "-//W3C//DTD SVG 1.1//EN" "http://www.w3.org/Graphics/SVG/1.1/DTD/svg11.dtd" [
	<!ENTITY ns_flows "http://ns.adobe.com/Flows/1.0/">
	<!ENTITY ns_svg "http://www.w3.org/2000/svg">
	<!ENTITY ns_xlink "http://www.w3.org/1999/xlink">
]>
<svg  version="1.1" xmlns="&ns_svg;" xmlns:xlink="&ns_xlink;" xmlns:a="http://ns.adobe.com/AdobeSVGViewerExtensions/3.0/"
	 width="769" height="249" viewBox="-0.5 -0.2 769 249" enable-background="new -0.5 -0.2 769 249" xml:space="preserve">
<defs>
</defs>
<path fill-rule="evenodd" clip-rule="evenodd" fill="#D9DADB" d="M745.6,43.2c14.1-11.7,21.7-23.1,22.4-34H565.1
	c-4.2,17.2-10.4,32.4-18.9,45.3h106.5c2-4.1,3.9-7.2,5.8-9.3c1.4-2,4.4-2.5,9-2H745.6L745.6,43.2z"/>
<path fill-rule="evenodd" clip-rule="evenodd" fill="#D9DADB" d="M608.8,82.1l24.5-4.5L645,64.8H540.2
	c-22.8,24.4-24.5,41.5-5.3,51.2c2.1,0.3,2.7-1.4,1.8-5.1c-1.4-4.7-0.8-9.9,2-15.2c2-4.4,4.4-7.5,7.2-9.7h40.6l-40.6,46.5
	c-4.9,3-11,4.2-17.8,3.4h-46.5l-13.1,11.6h58.3c12.4,0.6,22-2.1,28.3-8.2L595,93C600.1,85.9,604.7,82.4,608.8,82.1L608.8,82.1z"/>
<path fill-rule="evenodd" clip-rule="evenodd" fill="#D9DADB" d="M416,38.4h70.9c-4.9,16.5-31.7,48.1-80,94.5
	c-45.2,44.8-73.3,81.6-84.5,110.8h53.3l7.5-13.7l0.6-0.4v-0.4l0.7-1.6c18.5-30.8,43.5-60.8,75-89.1C520.2,79.7,550.7,36.4,551,7.9
	H399.8l-37.3,64.9h29.4L416,38.4L416,38.4z"/>
<path fill-rule="evenodd" clip-rule="evenodd" fill="#D9DADB" d="M329.7,9.5c-25.1-9.4-53.3,0.4-84.8,30
	c-11.4,10.9-21.8,23.1-32,37.1c-8.2,10.7-14.2,19.9-17.8,27.5l-8.6,17.5c-6.5,14.1-11.7,28.1-15.2,41.7
	c-11.6,42.5-5.4,69.2,18.6,80.4c24.4,11.3,52.6,2.5,84.5-25.8c19.3-17.8,35.2-36.8,48-57.8l8.9-14.8c11.7-22.7,19.4-46.4,23-71.4
	l0.4-2C359.4,38,350.9,17.2,329.7,9.5L329.7,9.5z M236.5,118.6c8.5-16.6,19.6-34.3,33-52.7c21-29.8,36.8-42.4,47.3-38.6
	c15.8,5.9,4.1,43.2-35.1,111.8c-9.9,16.5-22,34-36.2,52.5c-21.6,27.4-36.6,39.1-44.7,34.8c-8.6-4.5-6.2-22.3,7.3-52.9L236.5,118.6
	L236.5,118.6z"/>
<path fill-rule="evenodd" clip-rule="evenodd" fill="#D9DADB" d="M165.9,8.9c-25.1-9.6-53.3,0.6-84.7,30.3
	C69.9,49.7,59.1,62.1,49,76c-8.2,10.7-14.1,19.9-17.8,27.6l-8.5,17.2c-6.6,14.2-11.8,28.2-15.4,41.9c-11.6,42.3-5.2,69.2,18.9,80.4
	c24.1,11.1,52.3,2.5,84.3-25.9c19.3-17.6,35.5-36.8,48.3-57.5l8.6-15.1c11.7-22.6,19.4-46.3,23.1-70.9l0.3-2.3
	C195.5,37.4,187.1,16.7,165.9,8.9L165.9,8.9z M37,225.8c-8.5-4.5-6.1-22.3,7.5-52.9l28.2-55c8.6-16.5,19.6-34,33-52.5
	c21.1-29.6,36.8-42.6,47.3-38.8c15.9,5.9,4.2,43.2-34.9,111.8c-9.9,16.5-22,34-36.1,52.5C60.3,218.5,45.2,230,37,225.8L37,225.8z"/>
<path fill-rule="evenodd" clip-rule="evenodd" fill="#B1B2B4" d="M744.9,41.1c14.1-11.8,21.7-23.1,22.4-34.1H564.4
	c-4.1,17.3-10.3,32.4-18.9,45.4H652c2-4.2,4.1-7.2,5.8-9.3c1.4-2,4.4-2.7,9-2H744.9L744.9,41.1z"/>
<path fill-rule="evenodd" clip-rule="evenodd" fill="#B1B2B4" d="M644.3,62.5H539.6c-22.8,24.5-24.7,41.6-5.3,51.3
	c2,0.1,2.5-1.4,1.7-5.2c-1.4-4.5-0.7-9.7,2-15.1c2.1-4.4,4.5-7.6,7.2-9.7h40.6l-40.6,46.5c-4.9,3-10.8,4.2-17.6,3.4H481l-13.2,11.6
	h58.3c12.5,0.6,22-2.3,28.5-8.2l39.7-46.4c5.1-6.9,9.7-10.4,14-10.7l24.4-4.5L644.3,62.5L644.3,62.5z"/>
<path fill-rule="evenodd" clip-rule="evenodd" fill="#B1B2B4" d="M415.3,36.3h71c-5.1,16.5-31.8,48.1-80.2,94.5
	c-45.1,44.7-73.1,81.5-84.5,110.8h53.3l7.6-13.8l0.4-0.3v-0.4l0.8-1.6c18.3-30.9,43.5-60.8,75-89.3c60.7-58.7,91.4-102,91.6-130.5
	h-151l-37.5,64.9h29.4L415.3,36.3L415.3,36.3z"/>
<path fill-rule="evenodd" clip-rule="evenodd" fill="#B1B2B4" d="M329.1,7.4c-25.1-9.6-53.4,0.4-85,30c-11.3,10.7-21.8,23.1-32,37.1
	c-8.2,10.7-14.1,19.9-17.8,27.4l-8.5,17.5c-6.6,14.2-11.8,28.1-15.4,41.9c-11.6,42.3-5.4,69.2,18.6,80.4c24.4,11.1,52.6,2.7,84.5-26
	C293,198,309,178.9,321.9,158l8.7-14.9c11.7-22.6,19.4-46.3,23.1-71.2l0.3-2C358.7,35.9,350.4,15.1,329.1,7.4L329.1,7.4z
	 M235.8,116.4c8.5-16.5,19.6-34.1,33-52.7c21.1-29.6,36.8-42.3,47.3-38.5c15.9,5.9,4.1,43.2-34.9,111.8c-10,16.5-22.1,34-36.2,52.5
	c-21.7,27.2-36.6,39.1-44.8,34.8c-8.5-4.5-6.1-22.3,7.3-52.9L235.8,116.4L235.8,116.4z"/>
<path fill-rule="evenodd" clip-rule="evenodd" fill="#B1B2B4" d="M165.2,6.8C140.2-2.8,112,7.4,80.6,37C69.1,47.6,58.4,60,48.3,73.8
	c-8.2,10.9-14.1,19.9-17.6,27.8l-8.6,17.2c-6.6,14.1-11.8,28.2-15.4,41.9C-4.8,203,1.5,229.9,25.6,241c24.1,11.1,52.4,2.5,84.4-26
	c19.3-17.6,35.4-36.8,48.3-57.7l8.5-15c11.7-22.7,19.4-46.4,23.1-71.1l0.4-2.1C194.8,35.3,186.4,14.6,165.2,6.8L165.2,6.8z
	 M72,115.8c8.6-16.5,19.6-34,33-52.5c21.1-29.6,36.8-42.6,47.3-38.9c15.9,6.1,4.2,43.3-34.9,111.8c-9.7,16.6-21.8,34.1-36.1,52.6
	c-21.6,27.5-36.8,38.9-44.8,34.8c-8.6-4.7-6.2-22.3,7.3-52.9L72,115.8L72,115.8z"/>
<path fill-rule="evenodd" clip-rule="evenodd" fill="#878889" d="M549.2,4H398l-37.3,65h29.4l24-34.6h71
	c-4.9,16.5-31.7,48.1-80.2,94.5c-45.1,44.8-73.1,81.7-84.4,110.8h53.3l7.6-13.7l0.3-0.4v-0.3l0.8-1.7c18.5-30.9,43.5-60.8,75-89.1
	C518.3,75.8,548.9,32.5,549.2,4L549.2,4z"/>
<path fill-rule="evenodd" clip-rule="evenodd" fill="#878889" d="M650.9,50.7c2-4.2,3.9-7.2,5.8-9.4c1.4-2,4.4-2.5,8.9-2h78.2
	c14.1-11.7,21.7-23.1,22.4-34H563.3c-4.2,17.2-10.4,32.4-18.9,45.4H650.9L650.9,50.7z"/>
<path fill-rule="evenodd" clip-rule="evenodd" fill="#878889" d="M607,78.2l24.5-4.5l11.7-13H538.3c-22.8,24.5-24.7,41.6-5.4,51.3
	c2,0.3,2.7-1.4,1.8-5.1c-1.4-4.7-0.8-9.9,2-15.2c2-4.4,4.4-7.5,7.2-9.7h40.6L544,128.5c-4.9,3.1-11,4.2-17.8,3.4h-46.5l-13.1,11.6
	h58.2c12.5,0.7,22.1-2.1,28.5-8.2L593,89C598.2,82,602.9,78.4,607,78.2L607,78.2z"/>
<path fill-rule="evenodd" clip-rule="evenodd" fill="#878889" d="M352.5,70.1l0.4-2.1c4.5-34-3.8-54.7-25.1-62.5
	c-25.1-9.4-53.3,0.4-84.8,30c-11.4,10.9-21.8,23.1-32,37.1c-8.2,10.7-14.2,19.9-17.8,27.5l-8.6,17.5c-6.5,14.1-11.7,28.1-15.2,41.7
	c-11.6,42.4-5.4,69.2,18.6,80.4c24.2,11.3,52.6,2.5,84.5-25.8c19.3-17.8,35.2-36.8,48-57.7l8.9-15C341.2,118.6,349,94.9,352.5,70.1
	L352.5,70.1z M267.7,61.9c21-29.8,36.8-42.4,47.3-38.6c15.8,5.9,4.1,43.2-35.1,111.8c-9.9,16.5-22,34-36.2,52.5
	c-21.6,27.4-36.5,39.2-44.7,34.8c-8.6-4.5-6.2-22.3,7.3-52.9l28.2-54.9C243.2,98.2,254.3,80.4,267.7,61.9L267.7,61.9z"/>
<path fill-rule="evenodd" clip-rule="evenodd" fill="#878889" d="M21,117.1c-6.6,14.1-11.8,28.1-15.4,41.7
	c-11.6,42.3-5.2,69.2,18.9,80.4s52.3,2.5,84.3-26c19.3-17.6,35.4-36.8,48.3-57.7l8.6-14.9c11.7-22.6,19.4-46.3,23.1-70.9l0.3-2.1
	c4.7-34.1-3.7-54.9-24.9-62.6C139-4.6,110.7,5.5,79.4,35.3C68,45.7,57.3,58.1,47.2,72.1C39,82.8,33.1,92,29.4,99.7L21,117.1
	L21,117.1z M103.8,61.5c21.1-29.6,36.8-42.6,47.3-38.8c15.9,5.9,4.2,43.2-34.9,111.8c-9.9,16.5-22,34-36.1,52.5
	c-21.7,27.5-36.8,39.1-44.9,34.8c-8.5-4.5-6.1-22.1,7.3-52.9l28.3-55C79.4,97.5,90.6,80,103.8,61.5L103.8,61.5z"/>
<path fill-rule="evenodd" clip-rule="evenodd" d="M391.1,66.9l24-34.1h70.4c-4.9,16.5-31.6,47.8-79.5,93.8
	c-44.8,44.4-72.7,80.9-84,110h53l7.3-13.5l0.6-0.4v-0.4l0.7-1.6c18.5-30.6,43.3-60.2,74.4-88.6c60.4-58.2,90.9-101.3,91-129.6H399.1
	l-37.2,64.4H391.1L391.1,66.9z"/>
<path fill-rule="evenodd" clip-rule="evenodd" d="M742.2,37.4c14.1-11.6,21.6-22.8,22.3-33.7H563.1c-4.2,17.2-10.3,32.2-18.9,45
	h105.8c2-4.1,3.9-7.1,5.8-9.3c1.4-2,4.4-2.5,8.9-2H742.2L742.2,37.4z"/>
<path fill-rule="evenodd" clip-rule="evenodd" d="M606.5,76.2l24.2-4.5l11.7-12.8H538.3c-22.7,24.3-24.4,41.2-5.2,50.9
	c2,0.1,2.5-1.4,1.7-5.1c-1.4-4.7-0.7-9.7,2-15.1c2-4.4,4.4-7.5,7.2-9.6h40.2L544,126.1c-4.9,3-10.9,4.2-17.6,3.4h-46.2l-13,11.4H525
	c12.4,0.7,22-2.1,28.2-8l39.6-46C597.8,80,602.3,76.3,606.5,76.2L606.5,76.2z"/>
<path fill-rule="evenodd" clip-rule="evenodd" d="M354.3,66.2c4.5-33.8-3.8-54.4-24.9-62c-24.8-9.6-52.8,0.3-84.3,29.8
	c-11.3,10.7-21.7,23-31.8,36.8c-8,10.6-13.9,19.7-17.5,27.2l-8.5,17.3c-6.6,14.1-11.7,27.9-15.2,41.6c-11.6,42-5.4,68.7,18.5,79.7
	c24.1,11.1,52.1,2.7,84-25.7c19.2-17.5,34.9-36.5,47.8-57.3l8.6-14.8c11.7-22.6,19.4-46,23-70.6L354.3,66.2L354.3,66.2z
	 M236.8,112.3c8.5-16.4,19.6-34,32.8-52.3c20.9-29.5,36.5-42,46.9-38.4c15.8,5.9,4.1,42.9-34.8,111.1c-9.9,16.4-21.8,33.7-35.8,52
	c-21.6,27.1-36.4,38.8-44.5,34.6c-8.5-4.5-6.1-22,7.3-52.5L236.8,112.3L236.8,112.3z"/>
<path fill-rule="evenodd" clip-rule="evenodd" d="M191.6,65.5c4.6-33.7-3.8-54.3-24.8-62c-24.9-9.4-53,0.7-84.1,30
	C71.4,44,60.8,56.3,50.7,70.1c-8,10.6-13.9,19.7-17.5,27.4l-8.6,17.2c-6.5,14.1-11.6,27.9-15.2,41.5C-2,198.3,4.3,225,28.3,236
	c23.8,11.1,51.8,2.5,83.5-25.7c19.2-17.6,35.2-36.5,48-57.3l8.5-14.8c11.7-22.6,19.3-46.1,23-70.5L191.6,65.5L191.6,65.5z
	 M74.2,111.7c8.5-16.4,19.4-33.7,32.7-52.2c21-29.3,36.6-42.2,47.1-38.5c15.8,5.9,4.1,43-34.8,111c-9.6,16.5-21.7,33.8-35.6,52.2
	C62,211.4,47,223,38.9,218.8c-8.5-4.5-6.1-22.1,7.3-52.5L74.2,111.7L74.2,111.7z"/>
</svg>
